<svg xmlns="http://www.w3.org/2000/svg" version="1.0" viewBox="0 0 750 375">
  <defs>
    <clipPath id="a">
      <path d="M37.5 103.7H161V271H37.5Zm0 0"/>
    </clipPath>
  </defs>
  <g clip-path="url(#a)">
    <path d="M121.4 199.3a10.2 10.2 0 0 1-15.4 5.9c-4-2.7-4.4-6.8-4.4-11 1.3-.5 2.7-.8 4-1 3.2-.6 4.6-1 6.5-3.8 3.5-5.2 2.5-12-2.5-15.8a14.2 14.2 0 0 0-8-2.7c0-3 .2-5.9 0-8.8.5-3.4 1.9-6.5 5.2-8.3 5.3-2.9 12.2-.3 14.3 5.4.7 2 .6 4 .6 6v19.6c0 4.5.9 10-.3 14.5Zm-27.1-28c-4.2.5-8.5 1.4-12.7 2.9v-8c0-4.6-.6-9.6 4-12.4a8 8 0 0 1 10 1.2c1.9 2 2.3 4.4 2.3 7v.3c-.2 2.9 0 5.8 0 8.7l-3.6.3Zm31.1-6c0-3.2 0-6.4-1.7-9.3a13.8 13.8 0 0 0-13.6-7 14 14 0 0 0-10 6.2 12 12 0 0 0-13.3-6c-11.3 3-9.1 17.2-9 26.3a61.1 61.1 0 0 0-20.9 14c-3-14.5-6.2-28.9-9.3-43.3l-5-23c-.7-3.2-1.8-6.5-.6-9.7a9.1 9.1 0 0 1 8.3-6c3.5-.1 7.3 1.8 8.5 5 .7 2.1 1.1 4.4 1.6 6.6l5.4 21 3.7 14.7c.6 2.3 4.2 1.3 3.6-1l-9.8-38.5c-.4-1.6-.6-3.4-1.3-4.9-1.8-4.2-7.3-6.7-11.6-6.6-5.3 0-9.8 3.4-11.7 8.2-1 2.6-1.1 5.2-.6 7.9l3 13.7 12.6 58.2c0 .3.2.6.4.8a36.5 36.5 0 0 0-8.5 28.2c2 15.8 13 28.8 26 37.3v10.4c0 2.4 3.7 2.4 3.7 0 0-3.5.2-7 0-10.5-.1-2.2-1-2.5-3-3.8-3.4-2.3-6.6-5-9.5-8-9.8-10-16.8-24.7-12.6-38.8 3.5-12.2 14.7-21.8 25.8-27.2 6.4-3 13.4-5 20.5-5.4l3.2-.2h.2c1.7 0 3.4 0 4.9.5 4.2 1.5 6.8 5.7 5.4 10.1-.4 1.1-1 2.2-1.8 3-1 1-.6.7-1.8 1.1-1.2.4-2.7.4-4 .8a42.3 42.3 0 0 0-27.2 21c-.7 1.3.3 2.5 1.6 2.7 15.5 2 27.6 15 28.8 30.6.1 2.3 3.9 2.4 3.7 0A37.2 37.2 0 0 0 80 210.6c3.8-6 9-11 15.6-14.1l2.4-1c0 3.6.6 7 3 10a14 14 0 0 0 14.7 4.5 14 14 0 0 0 9.8-12.1c.2-2.4 0-4.9 0-7.3v-25.3Zm8.1 91.3Zm-1.6 1v.1c.1-.6.1-.3 0-.1Zm24.7-135c-5.1-4.4-13-4-17.8.8-3.3 3.3-4 8.2-5.4 12.5l-5.2 16.8c-.7 2.3 2.9 3.3 3.6 1l4-12.6c1.2-4.2 2-10 4.5-13.7 4.9-7.2 16.5-4.2 17 4.5.4 3.8-1.7 8.4-2.6 12l-3.5 13.3-3.3 12.5-1.5 5.5c-.6 2.3-.3 4.5-.3 6.9.4 14.5 0 29.4-2.4 43.8a53.3 53.3 0 0 1-8 22.9c-1.1 1.6-2.5 3-3.9 4.4-1.6 1.5-3.3 2.3-3.7 4.5-.5 3.5 0 7.3 0 10.9 0 2.4 3.7 2.4 3.7 0v-4.3c0-2-.5-4.6 0-6.5 0 .3 1.6-1.1 1.7-1.2a37.9 37.9 0 0 0 5.9-6.7 65 65 0 0 0 8.5-27.8 236.1 236.1 0 0 0 2-35.4l-.1-6.8c0-3.2.8-6.1 1.7-9.2 2.5-9.8 5-19.5 7.7-29.2 1.7-7 3.4-13.6-2.6-19"/>
  </g>
  <path d="M210.3 157.3v77.2c0 1.5-.5 2.8-1.5 3.8a5 5 0 0 1-3.8 1.6c-1.4 0-2.7-.5-3.8-1.6-1-1-1.6-2.3-1.6-3.8v-90.3c0-1.6.6-2.9 1.8-4a5.5 5.5 0 0 1 4-1.7c3.6 0 6.5 1.6 8.4 4.9l33.2 56.1.1.1.3-.1 33-56c1.9-3.3 4.8-5 8.8-5 1.6 0 3 .6 4.1 1.8a5.6 5.6 0 0 1 1.7 4v90c0 1.5-.5 2.8-1.6 4a5.4 5.4 0 0 1-7.8 0 5.3 5.3 0 0 1-1.7-4v-77l-.1-.2c-.2 0-.3 0-.3.2l-28.6 48a8.5 8.5 0 0 1-7.8 4.5c-3.4 0-6-1.5-7.7-4.5l-28.7-48c0-.1 0-.2-.2-.2-.1 0-.2 0-.2.2Zm128.7 84c-7.7 0-13.4-2.2-17-6.6-3.7-4.4-5.6-11.5-5.6-21.2v-40.8c0-1.4.5-2.6 1.5-3.5 1-1 2.1-1.5 3.5-1.5s2.6.5 3.6 1.5 1.4 2.1 1.4 3.5v39.9c0 7.4 1.3 12.6 3.7 15.5 2.5 3 6.6 4.5 12.3 4.5 5.4 0 10.3-2.6 14.7-7.8a27.7 27.7 0 0 0 6.5-18.5v-33.5a5 5 0 0 1 1.6-3.6 5 5 0 0 1 7.1 0 5 5 0 0 1 1.5 3.6v62.3c0 1.3-.5 2.4-1.5 3.4s-2 1.4-3.4 1.4a5 5 0 0 1-3.4-1.4c-1-1-1.4-2.1-1.4-3.4l-.2-8-.1-.1c-.2 0-.3 0-.3.3a29.5 29.5 0 0 1-24.4 14Zm79.5-8.3c5.4 0 9.5-1 12.4-3.1 2.8-2.1 4.3-5.1 4.3-9 0-3.7-1.3-6.6-3.9-8.6-2.5-2-7-3.6-13.3-4.7-9.3-1.7-16-4.3-20-7.7a17.7 17.7 0 0 1-6.2-14.2c0-5.9 2.4-10.6 7-14.1a32.1 32.1 0 0 1 19.7-5.3 54 54 0 0 1 20.6 3.9c1 .5 2 1.2 2.5 2.4.5 1 .6 2.2.2 3.4-.2 1-.9 1.8-1.8 2.3-1 .5-2 .6-3 0a47 47 0 0 0-18.5-3.7 21 21 0 0 0-12.3 3 9.4 9.4 0 0 0-4.2 8.1c0 3.4 1.2 6 3.7 8 2.4 2 6.9 3.4 13.4 4.5a41.4 41.4 0 0 1 20.3 7.8c4.1 3.6 6.2 8.6 6.2 14.9a18 18 0 0 1-7.2 15 32 32 0 0 1-19.9 5.4 52 52 0 0 1-22.8-4.9c-1-.5-2-1.4-2.5-2.6a4.9 4.9 0 0 1-.2-3.6c.2-1 .9-1.7 1.9-2.2 1-.4 2-.4 3 .1a46.7 46.7 0 0 0 20.6 4.9Zm61.3-91.8v4.4a5 5 0 0 1-1.6 3.8 5 5 0 0 1-3.7 1.6 5 5 0 0 1-3.8-1.6 5 5 0 0 1-1.6-3.8v-4.4a5 5 0 0 1 1.6-3.8 5 5 0 0 1 3.8-1.7 5 5 0 0 1 3.7 1.7c1 1 1.6 2.3 1.6 3.8Zm0 32v61.3a5 5 0 0 1-1.6 3.8 5 5 0 0 1-3.7 1.6 5 5 0 0 1-3.8-1.6 5 5 0 0 1-1.6-3.8v-61.4a5 5 0 0 1 1.6-3.8c1-1 2.3-1.6 3.8-1.6a5 5 0 0 1 3.7 1.6c1 1 1.6 2.3 1.6 3.8Zm57.6 68.1a35 35 0 0 1-26.1-10.2 37.2 37.2 0 0 1-10-27.3 38 38 0 0 1 9.6-27.6 35.1 35.1 0 0 1 26.5-9.9c6 0 11.8 1 17.6 3.2 1.2.4 2.1 1.1 2.7 2.3.5 1.1.6 2.3.1 3.5-.4 1.1-1 2-2.2 2.4a4 4 0 0 1-3.2 0 38 38 0 0 0-14.6-3c-8.1 0-14.5 2.6-19 7.7a31 31 0 0 0-6.8 21.4 31 31 0 0 0 7.1 21.3 24 24 0 0 0 18.7 7.9c5 0 9.9-1 14.6-3 1-.4 2-.4 3.2 0 1.1.4 1.8 1.2 2.2 2.3.5 1.2.5 2.4 0 3.5a4 4 0 0 1-2.5 2.3 51.8 51.8 0 0 1-17.9 3.2Zm77.1-39.4a43 43 0 0 0-22.6 4.9c-5.3 3.3-8 7.7-8 13.3 0 4.1 1.3 7.4 3.9 9.8a15 15 0 0 0 10.4 3.5 23 23 0 0 0 16.6-6.9c4.7-4.6 7-10.2 7-16.9v-6.5c0-.8-.4-1.2-1.2-1.2Zm-18.6 39.4c-6.7 0-12-1.9-16-5.6-4-3.8-6-8.8-6-15.2 0-8 3.5-14.5 10.6-19.3 7-4.7 17-7.1 30-7.1h6c1 0 1.3-.4 1.3-1.1 0-6.9-1.4-11.6-4-14.3-2.7-2.7-7.4-4-14-4a51 51 0 0 0-20.6 4.4c-1 .5-2 .5-3 0a3 3 0 0 1-1.7-2.2c-.3-1.2-.1-2.4.4-3.6.6-1.1 1.4-2 2.5-2.4 7.1-3 14.6-4.6 22.4-4.6 10 0 17.3 2 21.6 6.3 4.4 4.1 6.6 11 6.6 20.5v27.4c0 4.8.4 9.7 1.2 14.6.2 1.3-.1 2.4-1 3.4-.8 1-1.8 1.4-3 1.4a5.6 5.6 0 0 1-5.7-4.8 164.9 164.9 0 0 1-.7-8 27 27 0 0 1-11.2 10.5 32.8 32.8 0 0 1-15.7 3.7Zm66.9-40v33.5a5 5 0 0 1-1.5 3.6 5 5 0 0 1-7.2 0 5 5 0 0 1-1.4-3.6v-62.2c0-1.3.5-2.5 1.4-3.4 1-1 2.1-1.5 3.4-1.5a5 5 0 0 1 3.5 1.5c1 1 1.5 2 1.5 3.4v7.9l.2.1c.1 0 .2 0 .2-.3a29.5 29.5 0 0 1 24.5-14c8.1 0 14.2 2.5 18.1 7.6 4 5 6 13 6 24v37c0 1.4-.6 2.6-1.6 3.6s-2.1 1.4-3.5 1.4-2.6-.5-3.5-1.4a5 5 0 0 1-1.5-3.6v-36.2c0-9-1.3-15.2-3.9-18.7-2.6-3.5-7-5.2-13.3-5.2-5.4 0-10.3 2.6-14.7 8a28.1 28.1 0 0 0-6.7 18.5Zm0 0"/>
</svg>
